{
	"asset":{
		"generator":"Khronos glTF Blender I/O v3.6.28",
		"version":"2.0"
	},
	"scene":0,
	"scenes":[
		{
			"name":"Scene",
			"nodes":[
				0,
				1,
				2,
				3,
				4,
				5
			]
		}
	],
	"nodes":[
		{
			"mesh":0,
			"name":"Plane",
			"rotation":[
				0.5,
				0.5,
				-0.5,
				0.5000000596046448
			],
			"translation":[
				0,
				1.0638668537139893,
				-0.7707293033599854
			]
		},
		{
			"mesh":1,
			"name":"Plane.001",
			"rotation":[
				0.7057560086250305,
				-0.0436856634914875,
				0.04368569701910019,
				0.7057560682296753
			],
			"translation":[
				-0.8621488809585571,
				1.0638668537139893,
				-2.648601770401001
			]
		},
		{
			"mesh":2,
			"name":"Plane.002",
			"rotation":[
				0.48885098099708557,
				0.5109057426452637,
				-0.5109058022499084,
				0.4888509213924408
			],
			"translation":[
				-3.5577993392944336,
				1.0638668537139893,
				-0.9231294989585876
			]
		},
		{
			"mesh":3,
			"name":"Plane.003",
			"rotation":[
				0.6729195713996887,
				-0.21720777451992035,
				0.21720781922340393,
				0.6729196310043335
			],
			"translation":[
				-2.5096516609191895,
				1.0638668537139893,
				0.5673778057098389
			]
		},
		{
			"mesh":4,
			"name":"Plane.004",
			"rotation":[
				-0.5472464561462402,
				0.5472463965415955,
				-0.44779619574546814,
				0.4477962255477905
			],
			"scale":[
				0.8223319053649902,
				0.8223319053649902,
				0.8223319053649902
			],
			"translation":[
				-0.8060656189918518,
				1.031810998916626,
				1.162751317024231
			]
		},
		{
			"mesh":5,
			"name":"Plane.005",
			"rotation":[
				0.6830127239227295,
				0.18301273882389069,
				-0.1830127090215683,
				0.6830126643180847
			],
			"scale":[
				1.035434603691101,
				1.035434603691101,
				1.035434603691101
			],
			"translation":[
				-2.6560277938842773,
				1.0638669729232788,
				-2.2178103923797607
			]
		}
	],
	"materials":[
		{
			"doubleSided":true,
			"name":"paint1",
			"pbrMetallicRoughness":{
				"baseColorTexture":{
					"index":0
				},
				"metallicFactor":0,
				"roughnessFactor":0.5
			}
		},
		{
			"doubleSided":true,
			"name":"paint2",
			"pbrMetallicRoughness":{
				"baseColorTexture":{
					"index":1
				},
				"metallicFactor":0,
				"roughnessFactor":0.5
			}
		},
		{
			"doubleSided":true,
			"name":"paint3",
			"pbrMetallicRoughness":{
				"baseColorTexture":{
					"index":2
				},
				"metallicFactor":0,
				"roughnessFactor":0.5
			}
		},
		{
			"doubleSided":true,
			"name":"paint4",
			"pbrMetallicRoughness":{
				"baseColorTexture":{
					"index":3
				},
				"metallicFactor":0,
				"roughnessFactor":0.5
			}
		},
		{
			"doubleSided":true,
			"name":"paint5",
			"pbrMetallicRoughness":{
				"baseColorTexture":{
					"index":4
				},
				"metallicFactor":0,
				"roughnessFactor":0.5
			}
		},
		{
			"doubleSided":true,
			"name":"paint6",
			"pbrMetallicRoughness":{
				"baseColorTexture":{
					"index":5
				},
				"metallicFactor":0,
				"roughnessFactor":0.5
			}
		}
	],
	"meshes":[
		{
			"name":"Plane",
			"primitives":[
				{
					"attributes":{
						"POSITION":0,
						"NORMAL":1,
						"TEXCOORD_0":2
					},
					"indices":3,
					"material":0
				}
			]
		},
		{
			"name":"Plane.002",
			"primitives":[
				{
					"attributes":{
						"POSITION":4,
						"NORMAL":5,
						"TEXCOORD_0":6
					},
					"indices":7,
					"material":1
				}
			]
		},
		{
			"name":"Plane.003",
			"primitives":[
				{
					"attributes":{
						"POSITION":8,
						"NORMAL":9,
						"TEXCOORD_0":10
					},
					"indices":7,
					"material":2
				}
			]
		},
		{
			"name":"Plane.004",
			"primitives":[
				{
					"attributes":{
						"POSITION":11,
						"NORMAL":12,
						"TEXCOORD_0":13
					},
					"indices":3,
					"material":3
				}
			]
		},
		{
			"name":"Plane.005",
			"primitives":[
				{
					"attributes":{
						"POSITION":14,
						"NORMAL":15,
						"TEXCOORD_0":16
					},
					"indices":7,
					"material":4
				}
			]
		},
		{
			"name":"Plane.006",
			"primitives":[
				{
					"attributes":{
						"POSITION":17,
						"NORMAL":18,
						"TEXCOORD_0":19
					},
					"indices":7,
					"material":5
				}
			]
		}
	],
	"textures":[
		{
			"sampler":0,
			"source":0
		},
		{
			"sampler":0,
			"source":1
		},
		{
			"sampler":0,
			"source":2
		},
		{
			"sampler":0,
			"source":3
		},
		{
			"sampler":0,
			"source":4
		},
		{
			"sampler":0,
			"source":5
		}
	],
	"images":[
		{
			"mimeType":"image/jpeg",
			"name":"\u0413\u041e\u0421\u044b01",
			"uri":"%D0%93%D0%9E%D0%A1%D1%8B01.jpg"
		},
		{
			"mimeType":"image/jpeg",
			"name":"\u0413\u041e\u0421\u044b02",
			"uri":"%D0%93%D0%9E%D0%A1%D1%8B02.jpg"
		},
		{
			"mimeType":"image/jpeg",
			"name":"\u0413\u041e\u0421\u044b03",
			"uri":"%D0%93%D0%9E%D0%A1%D1%8B03.jpg"
		},
		{
			"mimeType":"image/jpeg",
			"name":"\u0413\u041e\u0421\u044b04",
			"uri":"%D0%93%D0%9E%D0%A1%D1%8B04.jpg"
		},
		{
			"mimeType":"image/jpeg",
			"name":"\u0413\u041e\u0421\u044b05",
			"uri":"%D0%93%D0%9E%D0%A1%D1%8B05.jpg"
		},
		{
			"mimeType":"image/jpeg",
			"name":"\u0413\u041e\u0421\u044b06",
			"uri":"%D0%93%D0%9E%D0%A1%D1%8B06.jpg"
		}
	],
	"accessors":[
		{
			"bufferView":0,
			"componentType":5126,
			"count":4,
			"max":[
				1.7707293033599854,
				5.8188444285178775e-08,
				1.0000001192092896
			],
			"min":[
				-1.7707293033599854,
				-5.8188444285178775e-08,
				-1
			],
			"type":"VEC3"
		},
		{
			"bufferView":1,
			"componentType":5126,
			"count":4,
			"type":"VEC3"
		},
		{
			"bufferView":2,
			"componentType":5126,
			"count":4,
			"type":"VEC2"
		},
		{
			"bufferView":3,
			"componentType":5123,
			"count":6,
			"type":"SCALAR"
		},
		{
			"bufferView":4,
			"componentType":5126,
			"count":4,
			"max":[
				0.8687810897827148,
				9.906742093335197e-09,
				1
			],
			"min":[
				-0.8687812089920044,
				-9.906745646048876e-09,
				-1
			],
			"type":"VEC3"
		},
		{
			"bufferView":5,
			"componentType":5126,
			"count":4,
			"type":"VEC3"
		},
		{
			"bufferView":6,
			"componentType":5126,
			"count":4,
			"type":"VEC2"
		},
		{
			"bufferView":7,
			"componentType":5123,
			"count":6,
			"type":"SCALAR"
		},
		{
			"bufferView":8,
			"componentType":5126,
			"count":4,
			"max":[
				0.7573312520980835,
				0.003442496992647648,
				1
			],
			"min":[
				-0.7573312520980835,
				-0.003442496992647648,
				-1
			],
			"type":"VEC3"
		},
		{
			"bufferView":9,
			"componentType":5126,
			"count":4,
			"type":"VEC3"
		},
		{
			"bufferView":10,
			"componentType":5126,
			"count":4,
			"type":"VEC2"
		},
		{
			"bufferView":11,
			"componentType":5126,
			"count":4,
			"max":[
				1.2550355195999146,
				1.925465475949295e-08,
				1
			],
			"min":[
				-1.255035638809204,
				-1.925465298313611e-08,
				-1
			],
			"type":"VEC3"
		},
		{
			"bufferView":12,
			"componentType":5126,
			"count":4,
			"type":"VEC3"
		},
		{
			"bufferView":13,
			"componentType":5126,
			"count":4,
			"type":"VEC2"
		},
		{
			"bufferView":14,
			"componentType":5126,
			"count":4,
			"max":[
				1.177072286605835,
				2.5798279068567354e-08,
				1
			],
			"min":[
				-1.255035638809204,
				-1.3368593343443536e-08,
				-0.8502992987632751
			],
			"type":"VEC3"
		},
		{
			"bufferView":15,
			"componentType":5126,
			"count":4,
			"type":"VEC3"
		},
		{
			"bufferView":16,
			"componentType":5126,
			"count":4,
			"type":"VEC2"
		},
		{
			"bufferView":17,
			"componentType":5126,
			"count":4,
			"max":[
				1.039050579071045,
				0,
				0.9657780528068542
			],
			"min":[
				-1.039050579071045,
				0,
				-0.9657780528068542
			],
			"type":"VEC3"
		},
		{
			"bufferView":18,
			"componentType":5126,
			"count":4,
			"type":"VEC3"
		},
		{
			"bufferView":19,
			"componentType":5126,
			"count":4,
			"type":"VEC2"
		}
	],
	"bufferViews":[
		{
			"buffer":0,
			"byteLength":48,
			"byteOffset":0,
			"target":34962
		},
		{
			"buffer":0,
			"byteLength":48,
			"byteOffset":48,
			"target":34962
		},
		{
			"buffer":0,
			"byteLength":32,
			"byteOffset":96,
			"target":34962
		},
		{
			"buffer":0,
			"byteLength":12,
			"byteOffset":128,
			"target":34963
		},
		{
			"buffer":0,
			"byteLength":48,
			"byteOffset":140,
			"target":34962
		},
		{
			"buffer":0,
			"byteLength":48,
			"byteOffset":188,
			"target":34962
		},
		{
			"buffer":0,
			"byteLength":32,
			"byteOffset":236,
			"target":34962
		},
		{
			"buffer":0,
			"byteLength":12,
			"byteOffset":268,
			"target":34963
		},
		{
			"buffer":0,
			"byteLength":48,
			"byteOffset":280,
			"target":34962
		},
		{
			"buffer":0,
			"byteLength":48,
			"byteOffset":328,
			"target":34962
		},
		{
			"buffer":0,
			"byteLength":32,
			"byteOffset":376,
			"target":34962
		},
		{
			"buffer":0,
			"byteLength":48,
			"byteOffset":408,
			"target":34962
		},
		{
			"buffer":0,
			"byteLength":48,
			"byteOffset":456,
			"target":34962
		},
		{
			"buffer":0,
			"byteLength":32,
			"byteOffset":504,
			"target":34962
		},
		{
			"buffer":0,
			"byteLength":48,
			"byteOffset":536,
			"target":34962
		},
		{
			"buffer":0,
			"byteLength":48,
			"byteOffset":584,
			"target":34962
		},
		{
			"buffer":0,
			"byteLength":32,
			"byteOffset":632,
			"target":34962
		},
		{
			"buffer":0,
			"byteLength":48,
			"byteOffset":664,
			"target":34962
		},
		{
			"buffer":0,
			"byteLength":48,
			"byteOffset":712,
			"target":34962
		},
		{
			"buffer":0,
			"byteLength":32,
			"byteOffset":760,
			"target":34962
		}
	],
	"samplers":[
		{
			"magFilter":9729,
			"minFilter":9987
		}
	],
	"buffers":[
		{
			"byteLength":792,
			"uri":"model33.bin"
		}
	]
}
